<?xml version="1.0" standalone="no"?>
<!DOCTYPE svg PUBLIC "-//W3C//DTD SVG 20010904//EN"
 "http://www.w3.org/TR/2001/REC-SVG-20010904/DTD/svg10.dtd">
<svg version="1.0" xmlns="http://www.w3.org/2000/svg"
 width="700.000000pt" height="700.000000pt" viewBox="0 0 700.000000 700.000000"
 preserveAspectRatio="xMidYMid meet">
<metadata>
Created by potrace 1.11, written by Peter Selinger 2001-2013
</metadata>
<g transform="translate(0.000000,700.000000) scale(0.100000,-0.100000)"
fill="#000000" stroke="none">
<path d="M526 6874 c-142 -34 -282 -143 -350 -273 -70 -134 -66 23 -66 -2226
0 -2247 -4 -2093 65 -2224 75 -141 216 -247 373 -280 37 -8 342 -11 1013 -11
l959 0 -2 -437 -3 -438 -100 -5 c-83 -4 -110 -10 -157 -33 -63 -31 -116 -86
-150 -156 -22 -44 -23 -59 -26 -328 l-3 -281 30 -34 29 -33 1362 0 1362 0 29
33 30 34 -3 281 c-3 269 -4 284 -26 328 -34 70 -87 125 -150 156 -47 23 -74
29 -157 33 l-100 5 -3 437 -2 438 385 0 385 0 0 -175 c0 -199 7 -227 65 -251
19 -8 62 -14 95 -14 l60 0 0 -412 c0 -333 3 -425 15 -477 35 -146 143 -286
274 -355 121 -64 143 -66 664 -66 l467 0 0 110 0 109 -482 3 -483 3 -50 25
c-64 31 -124 91 -155 155 l-25 50 -3 426 -3 427 76 4 c69 3 78 6 108 36 l32
32 3 185 4 185 243 0 c142 0 266 5 297 11 157 33 298 139 373 280 69 131 65
-23 65 2224 0 1774 -2 2038 -15 2094 -35 146 -143 286 -274 355 -136 71 117
66 -3106 65 -2475 -1 -2919 -3 -2969 -15z m5949 -232 c65 -30 138 -102 167
-166 l23 -51 3 -1737 2 -1738 -3170 0 -3170 0 2 1738 3 1737 23 50 c25 55 91
128 137 152 81 43 -31 42 3020 40 l2910 -2 50 -23z m-25 -4086 c0 -95 -5 -198
-10 -227 -13 -71 -51 -145 -101 -203 l-41 -46 -2856 2 -2857 3 -56 26 c-72 34
-134 96 -168 168 -25 54 -26 64 -29 254 l-4 197 3061 0 3061 0 0 -174z m-2190
-1131 l0 -435 -760 0 -760 0 0 435 0 435 760 0 760 0 0 -435z m206 -700 c10
-26 14 -80 14 -215 l0 -180 -1090 0 -1090 0 0 173 c0 154 2 175 20 205 11 18
30 37 43 42 12 5 466 9 1055 9 l1033 1 15 -35z"/>
<path d="M800 6422 c-19 -19 -30 -43 -35 -73 -3 -24 -5 -731 -3 -1571 l3
-1527 21 -28 c11 -15 32 -34 45 -40 19 -10 589 -13 2669 -13 2080 0 2650 3
2669 13 13 6 34 25 45 40 l21 28 3 1527 c2 840 0 1547 -3 1571 -5 30 -16 54
-35 73 l-28 28 -2672 0 -2672 0 -28 -28z m5210 -517 l0 -325 -2510 0 -2510 0
0 325 0 325 2510 0 2510 0 0 -325z m0 -1530 l0 -985 -2512 2 -2513 3 -3 970
c-1 534 0 976 3 983 3 9 516 12 2515 12 l2510 0 0 -985z"/>
<path d="M4702 5908 l3 -113 108 -3 107 -3 0 116 0 115 -110 0 -111 0 3 -112z"/>
<path d="M5140 5905 l0 -115 110 0 110 0 0 115 0 115 -110 0 -110 0 0 -115z"/>
<path d="M5580 5905 l0 -115 110 0 110 0 0 115 0 115 -110 0 -110 0 0 -115z"/>
<path d="M1653 5126 c-88 -29 -166 -98 -206 -184 -22 -46 -22 -54 -22 -567 l0
-520 28 -56 c32 -66 99 -132 165 -162 43 -20 63 -22 242 -22 182 0 198 1 241
23 73 36 125 87 160 157 27 55 33 79 37 160 l5 95 -112 0 -111 0 0 -67 c0 -77
-23 -127 -66 -143 -14 -6 -87 -10 -163 -10 -122 0 -141 2 -163 20 -48 37 -49
45 -46 544 l3 468 33 29 32 29 140 0 c76 0 150 -4 164 -10 43 -16 66 -66 66
-143 l0 -68 108 3 107 3 -1 90 c0 75 -5 100 -26 146 -35 76 -88 133 -156 166
-55 27 -63 28 -237 30 -129 2 -192 -1 -222 -11z"/>
<path d="M2840 5126 c-142 -41 -253 -147 -299 -284 -20 -58 -21 -83 -21 -467
0 -384 1 -409 21 -467 111 -332 549 -402 761 -123 21 28 48 75 61 105 22 54
22 62 22 485 0 423 0 431 -22 485 -46 112 -144 210 -253 251 -69 26 -206 34
-270 15z m229 -239 c22 -15 53 -46 68 -69 l28 -42 0 -401 0 -401 -28 -42 c-74
-113 -225 -136 -323 -49 -20 16 -45 49 -57 71 -22 40 -22 49 -22 421 0 370 1
381 22 420 47 87 115 127 209 122 47 -2 72 -9 103 -30z"/>
<path d="M3645 5107 l-35 -35 0 -696 0 -696 29 -32 29 -33 289 0 288 0 65 36
c43 23 78 52 102 85 69 90 68 81 68 641 0 472 -1 506 -19 553 -28 73 -80 131
-153 171 l-63 34 -283 3 -283 3 -34 -34z m572 -207 c18 -11 36 -32 40 -47 10
-36 10 -920 0 -956 -4 -15 -22 -36 -40 -47 -29 -18 -51 -20 -209 -20 l-178 0
0 545 0 545 178 0 c158 0 180 -2 209 -20z"/>
<path d="M4754 5121 c-17 -11 -36 -34 -43 -52 -8 -22 -11 -228 -11 -696 0
-727 -1 -717 59 -747 25 -14 81 -16 371 -16 l340 0 0 110 0 110 -275 0 -275 0
2 218 3 217 273 3 272 2 0 105 0 105 -272 2 -273 3 -3 218 -2 217 275 0 275 0
0 110 0 110 -342 0 c-319 0 -345 -1 -374 -19z"/>
<path d="M5250 2405 l0 -115 110 0 110 0 0 115 0 115 -110 0 -110 0 0 -115z"/>
<path d="M5680 2405 l0 -115 115 0 115 0 0 115 0 115 -115 0 -115 0 0 -115z"/>
<path d="M6120 2405 l0 -115 115 0 115 0 0 115 0 115 -115 0 -115 0 0 -115z"/>
</g>
</svg>
